STARTFONT 2.1
FONT -FontForge-Roboto Medium-Medium-R-Normal--21-200-75-75-P-108-ISO10646-1
SIZE 20 75 75
FONTBOUNDINGBOX 19 22 -1 -5
COMMENT "Generated by fontforge, http://fontforge.sourceforge.net"
COMMENT "Copyright 2011 Google Inc. All Rights Reserved."
STARTPROPERTIES 40
FOUNDRY "FontForge"
FAMILY_NAME "Roboto Medium"
WEIGHT_NAME "Medium"
SLANT "R"
SETWIDTH_NAME "Normal"
ADD_STYLE_NAME ""
PIXEL_SIZE 21
POINT_SIZE 200
RESOLUTION_X 75
RESOLUTION_Y 75
SPACING "P"
AVERAGE_WIDTH 108
CHARSET_REGISTRY "ISO10646"
CHARSET_ENCODING "1"
FONTNAME_REGISTRY ""
CHARSET_COLLECTIONS "ISO10646-1"
FONT_NAME "Roboto-Medium"
FACE_NAME "Roboto Medium"
COPYRIGHT "Copyright 2011 Google Inc. All Rights Reserved."
FONT_VERSION "2.137; 2017"
FONT_ASCENT 16
FONT_DESCENT 5
UNDERLINE_POSITION -2
UNDERLINE_THICKNESS 2
X_HEIGHT 10
CAP_HEIGHT 14
RAW_ASCENT 750
RAW_DESCENT 250
NORM_SPACE 5
RELATIVE_WEIGHT 50
RELATIVE_SETWIDTH 50
SUPERSCRIPT_X 0
SUPERSCRIPT_Y 10
SUPERSCRIPT_SIZE 13
SUBSCRIPT_X 0
SUBSCRIPT_Y 2
SUBSCRIPT_SIZE 13
FIGURE_WIDTH 12
AVG_LOWERCASE_WIDTH 105
AVG_UPPERCASE_WIDTH 134
ENDPROPERTIES
CHARS 96
STARTCHAR space
ENCODING 32
SWIDTH 249 0
DWIDTH 5 0
BBX 1 1 0 0
BITMAP
00
ENDCHAR
STARTCHAR exclam
ENCODING 33
SWIDTH 268 0
DWIDTH 6 0
BBX 2 15 2 0
BITMAP
C0
C0
C0
C0
C0
C0
C0
C0
C0
C0
00
00
C0
C0
C0
ENDCHAR
STARTCHAR quotedbl
ENCODING 34
SWIDTH 324 0
DWIDTH 7 0
BBX 5 5 1 11
BITMAP
D8
D8
D8
D8
D8
ENDCHAR
STARTCHAR numbersign
ENCODING 35
SWIDTH 610 0
DWIDTH 13 0
BBX 11 15 1 0
BITMAP
0CC0
0CC0
0CC0
0880
7FE0
7FE0
1980
1980
1100
FFE0
FFE0
3300
3300
3300
2200
ENDCHAR
STARTCHAR dollar
ENCODING 36
SWIDTH 568 0
DWIDTH 12 0
BBX 10 19 1 -2
BITMAP
0C00
0C00
1F00
7F80
7180
61C0
61C0
7000
3C00
1F00
0780
01C0
E1C0
E1C0
E1C0
7F80
3F00
0C00
0C00
ENDCHAR
STARTCHAR percent
ENCODING 37
SWIDTH 734 0
DWIDTH 15 0
BBX 13 15 1 0
BITMAP
7800
FC40
CC60
CCC0
CD80
FD80
7B00
0200
06F0
0DF8
0D98
1988
1198
31F8
00F0
ENDCHAR
STARTCHAR ampersand
ENCODING 38
SWIDTH 639 0
DWIDTH 13 0
BBX 12 15 1 0
BITMAP
1E00
3F00
7300
6380
6300
7700
3C00
3C00
7E60
E660
C7E0
C3C0
E1C0
7FE0
3E70
ENDCHAR
STARTCHAR quotesingle
ENCODING 39
SWIDTH 168 0
DWIDTH 4 0
BBX 2 5 1 11
BITMAP
C0
C0
C0
C0
C0
ENDCHAR
STARTCHAR parenleft
ENCODING 40
SWIDTH 348 0
DWIDTH 7 0
BBX 6 22 1 -5
BITMAP
08
1C
18
30
70
60
60
E0
E0
C0
C0
C0
C0
E0
E0
60
60
70
30
18
1C
08
ENDCHAR
STARTCHAR parenright
ENCODING 41
SWIDTH 352 0
DWIDTH 7 0
BBX 6 22 0 -5
BITMAP
80
E0
60
30
38
18
18
1C
1C
1C
0C
0C
1C
1C
1C
18
18
38
30
60
E0
80
ENDCHAR
STARTCHAR asterisk
ENCODING 42
SWIDTH 441 0
DWIDTH 9 0
BBX 9 8 0 7
BITMAP
0C00
0C00
4D80
FF80
1C00
1E00
3600
6300
ENDCHAR
STARTCHAR plus
ENCODING 43
SWIDTH 557 0
DWIDTH 12 0
BBX 10 10 1 2
BITMAP
0C00
0C00
0C00
0C00
FFC0
FFC0
0C00
0C00
0C00
0C00
ENDCHAR
STARTCHAR comma
ENCODING 44
SWIDTH 219 0
DWIDTH 5 0
BBX 4 6 0 -3
BITMAP
30
30
70
60
60
C0
ENDCHAR
STARTCHAR hyphen
ENCODING 45
SWIDTH 328 0
DWIDTH 7 0
BBX 5 2 1 5
BITMAP
F8
F8
ENDCHAR
STARTCHAR period
ENCODING 46
SWIDTH 279 0
DWIDTH 6 0
BBX 3 3 1 0
BITMAP
60
E0
60
ENDCHAR
STARTCHAR slash
ENCODING 47
SWIDTH 395 0
DWIDTH 8 0
BBX 8 16 0 -1
BITMAP
03
06
06
06
0C
0C
08
18
18
30
30
30
60
60
60
C0
ENDCHAR
STARTCHAR zero
ENCODING 48
SWIDTH 568 0
DWIDTH 12 0
BBX 10 15 1 0
BITMAP
1E00
7F80
7380
E1C0
E1C0
E1C0
E1C0
E1C0
E1C0
E1C0
E1C0
E1C0
7380
7F80
1E00
ENDCHAR
STARTCHAR one
ENCODING 49
SWIDTH 568 0
DWIDTH 12 0
BBX 6 15 2 0
BITMAP
0C
7C
FC
9C
1C
1C
1C
1C
1C
1C
1C
1C
1C
1C
1C
ENDCHAR
STARTCHAR two
ENCODING 50
SWIDTH 568 0
DWIDTH 12 0
BBX 10 15 1 0
BITMAP
3E00
7F80
E380
E1C0
C1C0
0180
0380
0700
0600
0E00
1C00
3800
7000
FFC0
FFC0
ENDCHAR
STARTCHAR three
ENCODING 51
SWIDTH 568 0
DWIDTH 12 0
BBX 10 15 1 0
BITMAP
3E00
7F80
E380
E180
01C0
0380
1F00
1F00
0380
01C0
01C0
C1C0
E380
7F80
3E00
ENDCHAR
STARTCHAR four
ENCODING 52
SWIDTH 568 0
DWIDTH 12 0
BBX 10 15 1 0
BITMAP
0380
0780
0F80
0F80
1B80
1B80
3380
7380
6380
C380
FFC0
FFC0
0380
0380
0380
ENDCHAR
STARTCHAR five
ENCODING 53
SWIDTH 568 0
DWIDTH 12 0
BBX 10 15 1 0
BITMAP
3FC0
7FC0
7000
7000
6000
7F00
7F80
61C0
01C0
00C0
00C0
E1C0
71C0
7F80
1F00
ENDCHAR
STARTCHAR six
ENCODING 54
SWIDTH 568 0
DWIDTH 12 0
BBX 10 15 1 0
BITMAP
0700
1F00
3800
7000
6000
6F00
FF80
F1C0
E1C0
E0C0
E0C0
61C0
71C0
3F80
1F00
ENDCHAR
STARTCHAR seven
ENCODING 55
SWIDTH 568 0
DWIDTH 12 0
BBX 10 15 1 0
BITMAP
FFC0
FFC0
01C0
0180
0380
0300
0700
0600
0E00
0C00
0C00
1C00
1800
3800
7000
ENDCHAR
STARTCHAR eight
ENCODING 56
SWIDTH 568 0
DWIDTH 12 0
BBX 10 15 1 0
BITMAP
1E00
7F80
7380
E1C0
E180
7380
3F00
3F00
6180
E1C0
E1C0
E1C0
E1C0
7F80
3F00
ENDCHAR
STARTCHAR nine
ENCODING 57
SWIDTH 568 0
DWIDTH 12 0
BBX 10 15 1 0
BITMAP
1E00
7F00
6380
E180
C1C0
C1C0
E1C0
E3C0
7FC0
3D80
0180
0380
0700
3E00
3800
ENDCHAR
STARTCHAR colon
ENCODING 58
SWIDTH 265 0
DWIDTH 6 0
BBX 3 12 1 0
BITMAP
60
E0
60
00
00
00
00
00
00
60
E0
60
ENDCHAR
STARTCHAR semicolon
ENCODING 59
SWIDTH 237 0
DWIDTH 5 0
BBX 3 15 1 -3
BITMAP
60
E0
E0
00
00
00
00
00
00
60
60
60
E0
C0
80
ENDCHAR
STARTCHAR less
ENCODING 60
SWIDTH 508 0
DWIDTH 11 0
BBX 8 10 1 1
BITMAP
01
07
1F
FC
E0
F0
7E
0F
03
01
ENDCHAR
STARTCHAR equal
ENCODING 61
SWIDTH 559 0
DWIDTH 12 0
BBX 9 6 1 4
BITMAP
FF80
FF80
0000
0000
FF80
FF80
ENDCHAR
STARTCHAR greater
ENCODING 62
SWIDTH 520 0
DWIDTH 11 0
BBX 9 10 1 1
BITMAP
C000
F000
FC00
1F00
0380
0780
3F00
F800
E000
8000
ENDCHAR
STARTCHAR question
ENCODING 63
SWIDTH 486 0
DWIDTH 10 0
BBX 9 15 0 0
BITMAP
1E00
7F80
6380
6180
8180
0380
0700
0E00
0C00
1C00
0000
0000
0C00
1C00
0C00
ENDCHAR
STARTCHAR at
ENCODING 64
SWIDTH 894 0
DWIDTH 19 0
BBX 17 20 1 -5
BITMAP
03F000
0FFC00
1C0E00
380300
300300
61E180
63F180
433180
C63180
C63180
C63180
C63180
C67300
C7FF00
639E00
600000
700000
3C1000
1FF000
07E000
ENDCHAR
STARTCHAR A
ENCODING 65
SWIDTH 665 0
DWIDTH 14 0
BBX 14 15 0 0
BITMAP
0300
0780
0780
0780
0DC0
0CC0
1CE0
1860
1860
3FF0
3FF0
3030
7038
6018
E01C
ENDCHAR
STARTCHAR B
ENCODING 66
SWIDTH 630 0
DWIDTH 13 0
BBX 11 15 1 0
BITMAP
FF80
FFC0
E0C0
E0E0
E0E0
E1C0
FF80
FFC0
E0E0
E0E0
E0E0
E0E0
E0E0
FFC0
FF80
ENDCHAR
STARTCHAR C
ENCODING 67
SWIDTH 652 0
DWIDTH 14 0
BBX 12 15 1 0
BITMAP
0F80
3FE0
70E0
7070
E070
E000
E000
E000
E000
E000
E070
7070
70E0
3FE0
0F80
ENDCHAR
STARTCHAR D
ENCODING 68
SWIDTH 653 0
DWIDTH 14 0
BBX 11 15 2 0
BITMAP
FE00
FF00
C380
C1C0
C0C0
C0E0
C0E0
C0E0
C0E0
C0E0
C0C0
C1C0
C380
FF00
FE00
ENDCHAR
STARTCHAR E
ENCODING 69
SWIDTH 565 0
DWIDTH 12 0
BBX 9 15 2 0
BITMAP
FF80
FF80
C000
C000
C000
C000
FF00
FF00
C000
C000
C000
C000
C000
FF80
FF80
ENDCHAR
STARTCHAR F
ENCODING 70
SWIDTH 549 0
DWIDTH 12 0
BBX 9 15 2 0
BITMAP
FF80
FF80
C000
C000
C000
C000
C000
FF00
FF00
C000
C000
C000
C000
C000
C000
ENDCHAR
STARTCHAR G
ENCODING 71
SWIDTH 680 0
DWIDTH 14 0
BBX 12 15 1 0
BITMAP
1F80
3FC0
70E0
6070
E070
E000
E000
E3F0
E3F0
E070
E070
6070
7070
3FE0
0F80
ENDCHAR
STARTCHAR H
ENCODING 72
SWIDTH 710 0
DWIDTH 15 0
BBX 11 15 2 0
BITMAP
C060
C060
C060
C060
C060
C060
FFE0
FFE0
C060
C060
C060
C060
C060
C060
C060
ENDCHAR
STARTCHAR I
ENCODING 73
SWIDTH 282 0
DWIDTH 6 0
BBX 2 15 2 0
BITMAP
C0
C0
C0
C0
C0
C0
C0
C0
C0
C0
C0
C0
C0
C0
C0
ENDCHAR
STARTCHAR J
ENCODING 74
SWIDTH 555 0
DWIDTH 12 0
BBX 9 15 1 0
BITMAP
0180
0180
0180
0180
0180
0180
0180
0180
0180
0180
0180
C180
E380
7F00
3E00
ENDCHAR
STARTCHAR K
ENCODING 75
SWIDTH 630 0
DWIDTH 13 0
BBX 11 15 2 0
BITMAP
C0E0
C1C0
C380
C700
CE00
DC00
DC00
FC00
FE00
EF00
C700
C380
C1C0
C1C0
C0E0
ENDCHAR
STARTCHAR L
ENCODING 76
SWIDTH 541 0
DWIDTH 11 0
BBX 9 15 2 0
BITMAP
C000
C000
C000
C000
C000
C000
C000
C000
C000
C000
C000
C000
C000
FF80
FF80
ENDCHAR
STARTCHAR M
ENCODING 77
SWIDTH 875 0
DWIDTH 18 0
BBX 15 15 2 0
BITMAP
E01E
E01E
F01E
F036
F83E
D87E
D86E
DC6E
CCEE
CCCE
C6CE
C78E
C78E
C38E
C30E
ENDCHAR
STARTCHAR N
ENCODING 78
SWIDTH 709 0
DWIDTH 15 0
BBX 11 15 2 0
BITMAP
C060
E060
F060
F060
F860
DC60
CC60
CE60
C660
C760
C3E0
C1E0
C1E0
C0E0
C060
ENDCHAR
STARTCHAR O
ENCODING 79
SWIDTH 690 0
DWIDTH 15 0
BBX 13 15 1 0
BITMAP
0F80
3FE0
38E0
7070
6030
E038
E038
E038
E038
E038
6030
7070
38E0
3FE0
0F80
ENDCHAR
STARTCHAR P
ENCODING 80
SWIDTH 639 0
DWIDTH 13 0
BBX 11 15 1 0
BITMAP
FF80
FFC0
E0E0
E060
E060
E060
E0E0
FFC0
FF80
E000
E000
E000
E000
E000
E000
ENDCHAR
STARTCHAR Q
ENCODING 81
SWIDTH 690 0
DWIDTH 15 0
BBX 13 17 1 -2
BITMAP
0F80
3FE0
78E0
7070
6030
E038
E038
E038
E038
E038
6030
7070
38E0
3FE0
0FE0
0070
0038
ENDCHAR
STARTCHAR R
ENCODING 82
SWIDTH 624 0
DWIDTH 13 0
BBX 12 15 1 0
BITMAP
FF80
FFC0
E0E0
E0E0
E060
E0E0
E0E0
FFC0
FF00
E380
E180
E1C0
E0E0
E0E0
E070
ENDCHAR
STARTCHAR S
ENCODING 83
SWIDTH 603 0
DWIDTH 13 0
BBX 11 15 1 0
BITMAP
1F00
7FC0
70E0
E0E0
E000
7000
7C00
1F80
07C0
00E0
E0E0
E0E0
F0E0
7FC0
1F80
ENDCHAR
STARTCHAR T
ENCODING 84
SWIDTH 606 0
DWIDTH 13 0
BBX 12 15 0 0
BITMAP
FFF0
FFF0
0700
0700
0700
0700
0700
0700
0700
0700
0700
0700
0700
0700
0700
ENDCHAR
STARTCHAR U
ENCODING 85
SWIDTH 651 0
DWIDTH 14 0
BBX 12 15 1 0
BITMAP
E070
E070
E070
E070
E070
E070
E070
E070
E070
E070
E070
6060
70E0
3FC0
1F80
ENDCHAR
STARTCHAR V
ENCODING 86
SWIDTH 646 0
DWIDTH 14 0
BBX 14 15 0 0
BITMAP
E01C
7038
7038
3030
3870
3870
1860
1CE0
1CE0
0CC0
0FC0
0FC0
0780
0780
0300
ENDCHAR
STARTCHAR W
ENCODING 87
SWIDTH 879 0
DWIDTH 18 0
BBX 18 15 0 0
BITMAP
E0C1C0
60E1C0
61E180
71E180
71E380
31F380
333300
333300
3B3300
3B1F00
1E1E00
1E1E00
1E1E00
1E0E00
0C0E00
ENDCHAR
STARTCHAR X
ENCODING 88
SWIDTH 632 0
DWIDTH 13 0
BBX 13 15 0 0
BITMAP
7038
7070
38E0
1CE0
1DC0
0F80
0F80
0700
0F80
0FC0
1DC0
18E0
38E0
7070
F038
ENDCHAR
STARTCHAR Y
ENCODING 89
SWIDTH 609 0
DWIDTH 13 0
BBX 13 15 0 0
BITMAP
E038
7070
7060
38E0
38C0
1DC0
0D80
0F80
0700
0700
0700
0700
0700
0700
0700
ENDCHAR
STARTCHAR Z
ENCODING 90
SWIDTH 602 0
DWIDTH 13 0
BBX 11 15 1 0
BITMAP
FFE0
FFE0
01C0
0180
0380
0700
0E00
0E00
1C00
3800
3800
7000
E000
FFE0
FFE0
ENDCHAR
STARTCHAR bracketleft
ENCODING 91
SWIDTH 273 0
DWIDTH 6 0
BBX 5 20 1 -3
BITMAP
F8
F8
E0
E0
E0
E0
E0
E0
E0
E0
E0
E0
E0
E0
E0
E0
E0
E0
F8
F8
ENDCHAR
STARTCHAR backslash
ENCODING 92
SWIDTH 417 0
DWIDTH 9 0
BBX 9 16 0 -1
BITMAP
E000
6000
7000
3000
3000
3800
1800
1C00
0C00
0C00
0E00
0600
0700
0700
0300
0380
ENDCHAR
STARTCHAR bracketright
ENCODING 93
SWIDTH 273 0
DWIDTH 6 0
BBX 4 20 0 -3
BITMAP
F0
F0
30
30
30
30
30
30
30
30
30
30
30
30
30
30
30
30
F0
F0
ENDCHAR
STARTCHAR asciicircum
ENCODING 94
SWIDTH 427 0
DWIDTH 9 0
BBX 7 7 1 8
BITMAP
38
38
38
6C
6C
C6
C6
ENDCHAR
STARTCHAR underscore
ENCODING 95
SWIDTH 451 0
DWIDTH 9 0
BBX 9 2 0 -2
BITMAP
FF80
FF80
ENDCHAR
STARTCHAR grave
ENCODING 96
SWIDTH 322 0
DWIDTH 7 0
BBX 5 3 0 13
BITMAP
F0
38
18
ENDCHAR
STARTCHAR a
ENCODING 97
SWIDTH 541 0
DWIDTH 11 0
BBX 9 11 1 0
BITMAP
3E00
7F00
E380
0380
3F80
FF80
E380
C380
E380
FF80
7D80
ENDCHAR
STARTCHAR b
ENCODING 98
SWIDTH 562 0
DWIDTH 12 0
BBX 10 16 1 0
BITMAP
E000
E000
E000
E000
E000
EF00
FF80
E1C0
E1C0
E0C0
E0C0
E0C0
E1C0
F1C0
FF80
EF00
ENDCHAR
STARTCHAR c
ENCODING 99
SWIDTH 523 0
DWIDTH 11 0
BBX 9 11 1 0
BITMAP
3E00
7F00
E380
E180
C000
C000
C000
E180
E380
7F00
3E00
ENDCHAR
STARTCHAR d
ENCODING 100
SWIDTH 564 0
DWIDTH 12 0
BBX 10 16 1 0
BITMAP
01C0
01C0
01C0
01C0
01C0
3DC0
7FC0
E3C0
E1C0
C1C0
C1C0
C1C0
E1C0
E3C0
7FC0
3DC0
ENDCHAR
STARTCHAR e
ENCODING 101
SWIDTH 536 0
DWIDTH 11 0
BBX 9 11 1 0
BITMAP
1E00
7F00
E380
C180
FF80
FF80
C000
E000
F180
7F80
1E00
ENDCHAR
STARTCHAR f
ENCODING 102
SWIDTH 354 0
DWIDTH 7 0
BBX 7 16 0 0
BITMAP
0E
1E
38
30
30
FE
FE
30
30
30
30
30
30
30
30
30
ENDCHAR
STARTCHAR g
ENCODING 103
SWIDTH 566 0
DWIDTH 12 0
BBX 10 15 1 -4
BITMAP
3DC0
7FC0
E1C0
E1C0
C1C0
C1C0
C1C0
E1C0
E1C0
7FC0
3DC0
01C0
6380
7F80
3E00
ENDCHAR
STARTCHAR h
ENCODING 104
SWIDTH 555 0
DWIDTH 12 0
BBX 10 16 1 0
BITMAP
E000
E000
E000
E000
E000
EF00
FF80
F180
E1C0
E1C0
E1C0
E1C0
E1C0
E1C0
E1C0
E1C0
ENDCHAR
STARTCHAR i
ENCODING 105
SWIDTH 255 0
DWIDTH 5 0
BBX 3 16 1 0
BITMAP
E0
E0
E0
00
00
E0
E0
E0
E0
E0
E0
E0
E0
E0
E0
E0
ENDCHAR
STARTCHAR j
ENCODING 106
SWIDTH 250 0
DWIDTH 5 0
BBX 5 20 -1 -4
BITMAP
38
38
38
00
00
38
38
38
38
38
38
38
38
38
38
38
38
38
F0
E0
ENDCHAR
STARTCHAR k
ENCODING 107
SWIDTH 521 0
DWIDTH 11 0
BBX 10 16 1 0
BITMAP
E000
E000
E000
E000
E000
E3C0
E700
EE00
FC00
FC00
FC00
FE00
E700
E700
E380
E1C0
ENDCHAR
STARTCHAR l
ENCODING 108
SWIDTH 255 0
DWIDTH 5 0
BBX 3 16 1 0
BITMAP
E0
E0
E0
E0
E0
E0
E0
E0
E0
E0
E0
E0
E0
E0
E0
E0
ENDCHAR
STARTCHAR m
ENCODING 109
SWIDTH 870 0
DWIDTH 18 0
BBX 16 11 1 0
BITMAP
EF3C
FFFE
E3C7
E187
E187
E187
E187
E187
E187
E187
E187
ENDCHAR
STARTCHAR n
ENCODING 110
SWIDTH 556 0
DWIDTH 12 0
BBX 10 11 1 0
BITMAP
EF00
FF80
F180
E1C0
E1C0
E1C0
E1C0
E1C0
E1C0
E1C0
E1C0
ENDCHAR
STARTCHAR o
ENCODING 111
SWIDTH 569 0
DWIDTH 12 0
BBX 10 11 1 0
BITMAP
1E00
7F80
6180
E1C0
C0C0
C0C0
C0C0
E1C0
6180
7F80
1E00
ENDCHAR
STARTCHAR p
ENCODING 112
SWIDTH 562 0
DWIDTH 12 0
BBX 10 15 1 -4
BITMAP
EF00
FF80
E1C0
E1C0
E0C0
E0C0
E0C0
E1C0
E1C0
FF80
EF00
E000
E000
E000
E000
ENDCHAR
STARTCHAR q
ENCODING 113
SWIDTH 567 0
DWIDTH 12 0
BBX 10 15 1 -4
BITMAP
3DC0
7FC0
E1C0
E1C0
C1C0
C1C0
C1C0
E1C0
E3C0
7FC0
3DC0
01C0
01C0
01C0
01C0
ENDCHAR
STARTCHAR r
ENCODING 114
SWIDTH 351 0
DWIDTH 7 0
BBX 6 11 1 0
BITMAP
DC
FC
E0
E0
E0
E0
E0
E0
E0
E0
E0
ENDCHAR
STARTCHAR s
ENCODING 115
SWIDTH 516 0
DWIDTH 11 0
BBX 9 11 1 0
BITMAP
3E00
7F00
E380
E000
7800
3F00
0780
C180
E380
7F00
3E00
ENDCHAR
STARTCHAR t
ENCODING 116
SWIDTH 332 0
DWIDTH 7 0
BBX 6 14 0 0
BITMAP
30
30
30
FC
FC
30
30
30
30
30
30
38
3C
1C
ENDCHAR
STARTCHAR u
ENCODING 117
SWIDTH 555 0
DWIDTH 12 0
BBX 10 11 1 0
BITMAP
E1C0
E1C0
E1C0
E1C0
E1C0
E1C0
E1C0
E1C0
63C0
7FC0
3DC0
ENDCHAR
STARTCHAR v
ENCODING 118
SWIDTH 494 0
DWIDTH 10 0
BBX 10 11 0 0
BITMAP
E1C0
6180
6180
7380
3300
3300
3F00
1E00
1E00
1E00
0C00
ENDCHAR
STARTCHAR w
ENCODING 119
SWIDTH 743 0
DWIDTH 16 0
BBX 14 11 1 0
BITMAP
C30C
C30C
E79C
E798
6798
6CD8
7CF8
3CF0
3870
3870
3870
ENDCHAR
STARTCHAR x
ENCODING 120
SWIDTH 502 0
DWIDTH 11 0
BBX 10 11 0 0
BITMAP
E1C0
7180
3B80
1F00
1E00
0E00
1E00
1F00
3B80
7180
E1C0
ENDCHAR
STARTCHAR y
ENCODING 121
SWIDTH 486 0
DWIDTH 10 0
BBX 10 15 0 -4
BITMAP
E1C0
6180
7180
7380
3300
3300
3F00
1E00
1E00
1E00
0C00
0C00
1800
7800
7000
ENDCHAR
STARTCHAR z
ENCODING 122
SWIDTH 502 0
DWIDTH 11 0
BBX 9 11 1 0
BITMAP
FF80
FF80
0700
0E00
0C00
1C00
3800
7000
6000
FF80
FF80
ENDCHAR
STARTCHAR braceleft
ENCODING 123
SWIDTH 335 0
DWIDTH 7 0
BBX 6 20 1 -4
BITMAP
08
1C
30
30
30
30
30
70
70
E0
E0
70
70
30
30
30
30
30
1C
08
ENDCHAR
STARTCHAR bar
ENCODING 124
SWIDTH 250 0
DWIDTH 5 0
BBX 2 18 2 -3
BITMAP
C0
C0
C0
C0
C0
C0
C0
C0
C0
C0
C0
C0
C0
C0
C0
C0
C0
C0
ENDCHAR
STARTCHAR braceright
ENCODING 125
SWIDTH 335 0
DWIDTH 7 0
BBX 6 20 0 -4
BITMAP
40
E0
30
30
30
30
30
38
38
1C
1C
38
38
30
30
30
30
30
E0
40
ENDCHAR
STARTCHAR asciitilde
ENCODING 126
SWIDTH 664 0
DWIDTH 14 0
BBX 12 4 1 4
BITMAP
3C30
7E70
E7E0
C3C0
ENDCHAR
STARTCHAR degree
ENCODING 176
SWIDTH 379 0
DWIDTH 8 0
BBX 6 6 1 9
BITMAP
30
78
CC
CC
78
30
ENDCHAR
ENDFONT
